HIERARCHY
ROOT hip
{
  OFFSET -318.63 79.9684 -32.8705
  CHANNELS 6 Xposition Yposition Zposition Zrotation Xrotation Yrotation
  JOINT abdomen
  {
    OFFSET 0 20.6881 -0.73152
    CHANNELS 3 Zrotation Xrotation Yrotation
    JOINT chest
    {
      OFFSET 0 11.7043 -0.48768
      CHANNELS 3 Zrotation Xrotation Yrotation
      JOINT neck
      {
        OFFSET 0 22.1894 -2.19456
        CHANNELS 3 Zrotation Xrotation Yrotation
        JOINT head
        {
          OFFSET -0.24384 7.07133 1.2192
          CHANNELS 3 Zrotation Xrotation Yrotation
          JOINT leftEye
          {
            OFFSET 4.14528 8.04674 8.04672
            CHANNELS 3 Zrotation Xrotation Yrotation
            End Site
            {
              OFFSET 1 0 0
            }
          }
          JOINT rightEye
          {
            OFFSET -3.6576 8.04674 8.04672
            CHANNELS 3 Zrotation Xrotation Yrotation
            End Site
            {
              OFFSET 1 0 0
            }
          }
        }
      }
      JOINT rCollar
      {
        OFFSET -2.68224 19.2634 -4.8768
        CHANNELS 3 Zrotation Xrotation Yrotation
        JOINT rShldr
        {
          OFFSET -8.77824 -1.95073 1.46304
          CHANNELS 3 Zrotation Xrotation Yrotation
          JOINT rForeArm
          {
            OFFSET -28.1742 -1.7115 0.48768
            CHANNELS 3 Zrotation Xrotation Yrotation
            JOINT rHand
            {
              OFFSET -22.5879 0.773209 7.07136
              CHANNELS 3 Zrotation Xrotation Yrotation
              JOINT rThumb1
              {
                OFFSET -1.2192 -0.487915 3.41376
                CHANNELS 3 Zrotation Xrotation Yrotation
                JOINT rThumb2
                {
                  OFFSET -3.37035 -0.52449 3.41376
                  CHANNELS 3 Zrotation Xrotation Yrotation
                  End Site
                  {
                    OFFSET -1.78271 -1.18214 1.43049
                  }
                }
              }
              JOINT rIndex1
              {
                OFFSET -7.75947 0.938293 5.60832
                CHANNELS 3 Zrotation Xrotation Yrotation
                JOINT rIndex2
                {
                  OFFSET -2.54057 -0.884171 1.56538
                  CHANNELS 3 Zrotation Xrotation Yrotation
                  End Site
                  {
                    OFFSET -1.62519 -0.234802 1.16502
                  }
                }
              }
              JOINT rMid1
              {
                OFFSET -8.24714 1.18213 3.41376
                CHANNELS 3 Zrotation Xrotation Yrotation
                JOINT rMid2
                {
                  OFFSET -3.10165 -0.590103 1.0647
                  CHANNELS 3 Zrotation Xrotation Yrotation
                  End Site
                  {
                    OFFSET -2.48547 -0.328903 0.83742
                  }
                }
              }
              JOINT rRing1
              {
                OFFSET -8.82822 0.546677 1.51678
                CHANNELS 3 Zrotation Xrotation Yrotation
                JOINT rRing2
                {
                  OFFSET -2.60934 -0.819778 -0.0198488
                  CHANNELS 3 Zrotation Xrotation Yrotation
                  End Site
                  {
                    OFFSET -2.33842 -0.294052 0.168128
                  }
                }
              }
              JOINT rPinky1
              {
                OFFSET -8.27202 -0.0477905 -0.4584
                CHANNELS 3 Zrotation Xrotation Yrotation
                JOINT rPinky2
                {
                  OFFSET -1.82734 -0.647385 -0.700984
                  CHANNELS 3 Zrotation Xrotation Yrotation
                  End Site
                  {
                    OFFSET -1.69225 -0.51767 -0.607171
                  }
                }
              }
            }
          }
        }
      }
      JOINT lCollar
      {
        OFFSET 2.68224 19.2634 -4.8768
        CHANNELS 3 Zrotation Xrotation Yrotation
        JOINT lShldr
        {
          OFFSET 8.77824 -1.95073 1.46304
          CHANNELS 3 Zrotation Xrotation Yrotation
          JOINT lForeArm
          {
            OFFSET 28.1742 -1.7115 0.48768
            CHANNELS 3 Zrotation Xrotation Yrotation
            JOINT lHand
            {
              OFFSET 22.5879 0.773209 7.07136
              CHANNELS 3 Zrotation Xrotation Yrotation
              JOINT lThumb1
              {
                OFFSET 1.2192 -0.487915 3.41376
                CHANNELS 3 Zrotation Xrotation Yrotation
                JOINT lThumb2
                {
                  OFFSET 3.37035 -0.52449 3.41376
                  CHANNELS 3 Zrotation Xrotation Yrotation
                  End Site
                  {
                    OFFSET 1.78271 -1.18214 1.43049
                  }
                }
              }
              JOINT lIndex1
              {
                OFFSET 7.75947 0.938293 5.60832
                CHANNELS 3 Zrotation Xrotation Yrotation
                JOINT lIndex2
                {
                  OFFSET 2.54057 -0.884171 1.56538
                  CHANNELS 3 Zrotation Xrotation Yrotation
                  End Site
                  {
                    OFFSET 1.62519 -0.234802 1.16502
                  }
                }
              }
              JOINT lMid1
              {
                OFFSET 8.24714 1.18213 3.41376
                CHANNELS 3 Zrotation Xrotation Yrotation
                JOINT lMid2
                {
                  OFFSET 3.10165 -0.590103 1.0647
                  CHANNELS 3 Zrotation Xrotation Yrotation
                  End Site
                  {
                    OFFSET 2.48547 -0.328903 0.83742
                  }
                }
              }
              JOINT lRing1
              {
                OFFSET 8.82822 0.546677 1.51678
                CHANNELS 3 Zrotation Xrotation Yrotation
                JOINT lRing2
                {
                  OFFSET 2.60934 -0.819778 -0.0198488
                  CHANNELS 3 Zrotation Xrotation Yrotation
                  End Site
                  {
                    OFFSET 2.33842 -0.294052 0.168128
                  }
                }
              }
              JOINT lPinky1
              {
                OFFSET 8.27202 -0.0477905 -0.4584
                CHANNELS 3 Zrotation Xrotation Yrotation
                JOINT lPinky2
                {
                  OFFSET 1.82734 -0.647385 -0.700984
                  CHANNELS 3 Zrotation Xrotation Yrotation
                  End Site
                  {
                    OFFSET 1.69225 -0.51767 -0.607171
                  }
                }
              }
            }
          }
        }
      }
    }
  }
  JOINT rButtock
  {
    OFFSET -8.77824 4.35084 1.2192
    CHANNELS 3 Zrotation Xrotation Yrotation
    JOINT rThigh
    {
      OFFSET 0 -1.70687 -2.19456
      CHANNELS 3 Zrotation Xrotation Yrotation
      JOINT rShin
      {
        OFFSET 0 -36.8199 0.73152
        CHANNELS 3 Zrotation Xrotation Yrotation
        JOINT rFoot
        {
          OFFSET 0.73152 -45.1104 -5.12064
          CHANNELS 3 Zrotation Xrotation Yrotation
          End Site
          {
            OFFSET -1.1221 -3.69964 12.103
          }
        }
      }
    }
  }
  JOINT lButtock
  {
    OFFSET 8.77824 4.35084 1.2192
    CHANNELS 3 Zrotation Xrotation Yrotation
    JOINT lThigh
    {
      OFFSET 0 -1.70687 -2.19456
      CHANNELS 3 Zrotation Xrotation Yrotation
      JOINT lShin
      {
        OFFSET 0 -36.8199 0.73152
        CHANNELS 3 Zrotation Xrotation Yrotation
        JOINT lFoot
        {
          OFFSET -0.73152 -45.1104 -5.12064
          CHANNELS 3 Zrotation Xrotation Yrotation
          End Site
          {
            OFFSET 1.1221 -3.69964 12.103
          }
        }
      }
    }
  }
}
MOTION
Frames:	4
Frame Time:	0.00833333
106.023 69.4426 -35.1592 13.8509 -2.07903 -85.802 1.76596 49.3559 -4.82109 -2.0068 -8.75135 -1.7398 1.65671 18.8947 0.559823 3.38437 -68.6355 1.63666 -0 0 0 -0 0 0 2.18854e-014 -3.32894e-012 -7.95014e-014 78.8087 30.2598 3.94301 -18.4506 -11.1795 35.0393 -0.00544019 -2.10269 -0.295648 9.34664e-010 1.42924e-009 4.70193e-010 1.62315e-009 2.47061e-009 8.16281e-010 9.34673e-010 1.42924e-009 4.70176e-010 7.73091 5.47488 0.417314 9.34665e-010 1.42924e-009 4.70187e-010 2.90554 0.965183 0.102902 9.34671e-010 1.42924e-009 4.70194e-010 10.2786 0.731801 0.0259123 9.34659e-010 1.42924e-009 4.70203e-010 2.22167 -0.733487 -0.20892 2.17989e-014 -3.32893e-012 -7.97282e-014 -73.5114 27.6448 -4.35776 17.8127 -10.4865 -33.6018 0.809669 -24.6711 3.70132 -4.13162e-010 9.72666e-010 -7.53786e-010 -7.12449e-010 1.67494e-009 -1.30961e-009 -4.13168e-010 9.72668e-010 -7.53785e-010 -7.73091 5.47488 -0.417314 -4.13165e-010 9.72669e-010 -7.53778e-010 -2.90554 0.965183 -0.102902 -4.13167e-010 9.72667e-010 -7.53782e-010 -10.2786 0.731801 -0.0259123 -4.13156e-010 9.72669e-010 -7.53788e-010 -2.22167 -0.733487 0.20892 -2.03217e-016 0 -3.88251e-019 -12.0113 -74.2487 -12.2963 -1.68322 66.3421 1.80278 1.68361 17.7885 -9.92216 2.03217e-016 0 3.88251e-019 10.2441 -42.0908 18.1765 3.79352 78.6057 -5.1629 2.8483 18.1814 -7.17802 
105.185 69.3743 -35.3133 13.7827 -1.99472 -85.661 1.93984 49.3195 -4.98643 -2.03512 -8.76087 -1.76046 1.63361 18.9482 0.559114 3.5282 -68.6185 1.74076 -0 0 0 -0 0 0 2.39758e-014 -3.52153e-012 -8.65334e-014 78.7988 30.2793 3.9601 -18.4528 -11.182 35.0444 -0.00555572 -2.1248 -0.298761 8.83705e-010 1.70939e-009 4.91395e-010 1.53597e-009 2.95531e-009 8.53107e-010 8.83716e-010 1.7094e-009 4.9137e-010 7.73091 5.47488 0.417314 8.83705e-010 1.7094e-009 4.9139e-010 2.90554 0.965183 0.102902 8.83714e-010 1.7094e-009 4.91395e-010 10.2786 0.731801 0.0259123 8.83703e-010 1.7094e-009 4.91402e-010 2.22167 -0.733487 -0.20892 2.37775e-014 -3.52152e-012 -8.67823e-014 -73.5415 27.6493 -4.32238 17.8322 -10.5073 -33.6455 0.803696 -24.5868 3.68698 -4.71666e-010 1.28679e-009 -7.81941e-010 -8.15231e-010 2.21868e-009 -1.35861e-009 -4.7167e-010 1.28679e-009 -7.81935e-010 -7.73091 5.47488 -0.417314 -4.71666e-010 1.28679e-009 -7.81931e-010 -2.90554 0.965183 -0.102902 -4.71668e-010 1.28679e-009 -7.81933e-010 -10.2786 0.731801 -0.0259123 -4.71658e-010 1.28679e-009 -7.81938e-010 -2.22167 -0.733487 0.20892 -2.03217e-016 0 -3.88251e-019 -11.904 -74.1157 -12.2621 -1.77698 67.2429 1.92825 1.50342 17.4727 -9.3322 2.03217e-016 0 3.88251e-019 10.5401 -42.0495 17.8429 4.01651 79.1277 -5.39836 3.14522 19.6811 -7.53669 
104.372 69.3024 -35.4659 13.7492 -1.88271 -85.5244 2.15026 49.2594 -5.15164 -2.08057 -8.77762 -1.77763 1.61039 18.9776 0.555071 3.64998 -68.5966 1.81862 -0 0 0 -0 0 0 1.56306e-014 -3.03686e-012 -7.55879e-014 78.7998 30.2979 3.95266 -18.4656 -11.1963 35.0734 -0.00578435 -2.17105 -0.305269 7.20243e-010 1.5529e-009 4.55325e-010 1.2524e-009 2.6849e-009 7.90281e-010 7.20255e-010 1.55291e-009 4.55296e-010 7.73091 5.47488 0.417314 7.20243e-010 1.55291e-009 4.55322e-010 2.90554 0.965183 0.102902 7.20253e-010 1.55291e-009 4.55325e-010 10.2786 0.731801 0.0259123 7.20242e-010 1.55291e-009 4.55331e-010 2.22167 -0.733487 -0.20892 1.53807e-014 -3.03685e-012 -7.58364e-014 -73.5696 27.662 -4.28041 17.8681 -10.5456 -33.725 0.7992 -24.5231 3.67612 -3.70614e-010 1.26056e-009 -6.84961e-010 -6.41302e-010 2.17559e-009 -1.18885e-009 -3.70617e-010 1.26056e-009 -6.84952e-010 -7.73091 5.47488 -0.417314 -3.70613e-010 1.26056e-009 -6.84952e-010 -2.90554 0.965183 -0.102902 -3.70614e-010 1.26056e-009 -6.84951e-010 -10.2786 0.731801 -0.0259123 -3.70606e-010 1.26056e-009 -6.84955e-010 -2.22167 -0.733487 0.20892 -2.03217e-016 0 -3.88251e-019 -11.8262 -74.0127 -12.3237 -1.87472 68.0972 2.0537 1.35248 17.1915 -8.82642 2.03217e-016 0 3.88251e-019 10.8888 -42.1603 17.5455 4.31812 79.7557 -5.71038 3.47382 21.1589 -7.94663 
103.584 69.2275 -35.6158 13.7641 -1.73009 -85.3865 2.42828 49.1569 -5.33126 -2.15058 -8.80315 -1.79146 1.58842 18.969 0.5454 3.73739 -68.555 1.85543 -0 0 0 -0 0 0 -1.3024e-014 -1.29045e-012 -3.14305e-014 78.8208 30.3116 3.90526 -18.4926 -11.2264 35.1348 -0.00620404 -2.25202 -0.316665 3.45218e-010 6.05949e-010 3.14585e-010 5.99579e-010 1.04761e-009 5.45278e-010 3.45229e-010 6.05961e-010 3.14557e-010 7.73091 5.47488 0.417314 3.45218e-010 6.05961e-010 3.14584e-010 2.90554 0.965183 0.102902 3.45226e-010 6.05961e-010 3.14586e-010 10.2786 0.731801 0.0259123 3.45216e-010 6.05963e-010 3.14594e-010 2.22167 -0.733487 -0.20892 -1.32289e-014 -1.29044e-012 -3.16316e-014 -73.6005 27.6864 -4.22187 17.926 -10.6076 -33.8538 0.795679 -24.4729 3.6676 4.32778e-011 6.36534e-010 -3.54758e-010 7.48836e-011 1.10239e-009 -6.10969e-010 4.32752e-011 6.36534e-010 -3.54749e-010 -7.73091 5.47488 -0.417314 4.32796e-011 6.36533e-010 -3.54753e-010 -2.90554 0.965183 -0.102902 4.32768e-011 6.36534e-010 -3.54748e-010 -10.2786 0.731801 -0.0259123 4.32854e-011 6.36537e-010 -3.54752e-010 -2.22167 -0.733487 0.20892 -2.03217e-016 0 -3.88251e-019 -11.8189 -73.9531 -12.558 -1.97457 68.8993 2.17648 1.23319 16.9458 -8.42893 2.03217e-016 0 3.88251e-019 11.2941 -42.4591 17.2606 4.73969 80.5148 -6.13959 3.84081 22.6195 -8.41387 
